<?xml version="1.0" encoding="UTF-8" standalone="no"?>
<!-- Created with Inkscape (http://www.inkscape.org/) -->

<svg
   xmlns:dc="http://purl.org/dc/elements/1.1/"
   xmlns:cc="http://creativecommons.org/ns#"
   xmlns:rdf="http://www.w3.org/1999/02/22-rdf-syntax-ns#"
   xmlns:svg="http://www.w3.org/2000/svg"
   xmlns="http://www.w3.org/2000/svg"
   xmlns:sodipodi="http://sodipodi.sourceforge.net/DTD/sodipodi-0.dtd"
   xmlns:inkscape="http://www.inkscape.org/namespaces/inkscape"
   id="svg4136"
   version="1.1"
   inkscape:version="0.91 r13725"
   xml:space="preserve"
   width="738.42212"
   height="383.28186"
   viewBox="0 0 738.42212 383.28186"
   sodipodi:docname="logo.svg"><metadata
     id="metadata4142"><rdf:RDF><cc:Work
         rdf:about=""><dc:format>image/svg+xml</dc:format><dc:type
           rdf:resource="http://purl.org/dc/dcmitype/StillImage" /><dc:title></dc:title></cc:Work></rdf:RDF></metadata><defs
     id="defs4140"><clipPath
       clipPathUnits="userSpaceOnUse"
       id="clipPath4150"><path
         d="M 0,792 612,792 612,0 0,0 0,792 Z"
         id="path4152"
         inkscape:connector-curvature="0" /></clipPath></defs><sodipodi:namedview
     pagecolor="#ffffff"
     bordercolor="#666666"
     borderopacity="1"
     objecttolerance="10"
     gridtolerance="10"
     guidetolerance="10"
     inkscape:pageopacity="0"
     inkscape:pageshadow="2"
     inkscape:window-width="1280"
     inkscape:window-height="961"
     id="namedview4138"
     showgrid="false"
     inkscape:zoom="0.8"
     inkscape:cx="333.42212"
     inkscape:cy="244.1065"
     inkscape:window-x="-8"
     inkscape:window-y="-8"
     inkscape:window-maximized="1"
     inkscape:current-layer="g4144"
     fit-margin-top="0"
     fit-margin-left="0"
     fit-margin-right="0"
     fit-margin-bottom="0" /><g
     id="g4144"
     inkscape:groupmode="layer"
     inkscape:label="UTEK OFFICIAL LOGO"
     transform="matrix(1.25,0,0,-1.25,-49.077875,734.17538)"><g
       id="g4146"
       transform="translate(18,-33)"><g
         id="g4148"
         clip-path="url(#clipPath4150)"><g
           id="g4154"
           transform="translate(299.6348,494.9243)"><path
             d="M 0,0 C -18.949,6.194 -29.235,26.739 -22.975,45.89 -16.715,65.04 3.721,75.543 22.669,69.349 41.618,63.155 51.904,42.609 45.645,23.459 39.384,4.309 18.948,-6.194 0,0 M 101.666,14.909 83.159,30.568 c 0.35,6.408 -0.176,12.748 -1.487,18.879 L 97.925,67.839 89.497,84.621 64.822,82.548 C 60.681,87.169 55.92,91.288 50.6,94.753 l -1.625,24.823 -17.848,5.84 -15.993,-19.07 C 8.647,106.699 2.229,106.158 -3.972,104.81 l -18.766,16.583 -16.782,-8.428 2.11,-25.122 0.194,-0.172 c -4.486,-4.078 -8.491,-8.744 -11.871,-13.944 l -23.991,-1.466 -5.919,-17.822 18.38,-15.551 c -0.387,-6.188 0.051,-12.317 1.219,-18.261 l -16.489,-18.659 8.428,-16.781 24.357,2.045 c 4.37,-5.041 9.472,-9.507 15.211,-13.22 l 1.587,-24.24 17.848,-5.84 15.619,18.623 c 6.914,-0.398 13.759,0.208 20.342,1.739 l 18.381,-16.242 16.781,8.427 -2.109,25.123 -0.202,0.177 c 4.373,4.068 8.275,8.702 11.565,13.852 l 23.827,1.456 5.918,17.822 z"
             style="fill:#a7dd88;fill-opacity:1;fill-rule:nonzero;stroke:none"
             id="path4156"
             inkscape:connector-curvature="0" /></g><g
           id="g4158"
           transform="translate(176.1133,423.2778)"><path
             d="m 0,0 c -6.26,-19.15 -26.695,-29.653 -45.644,-23.459 -18.949,6.194 -29.235,26.74 -22.975,45.89 6.26,19.15 26.696,29.653 45.644,23.459 C -4.026,39.696 6.26,19.15 0,0 m 79.762,-26.89 5.374,24.588 -25.074,8.678 c 0.28,5.379 0.1,10.684 -0.505,15.876 L 84.623,33.09 77.425,57.207 50.678,52.56 C 47.886,58.285 44.526,63.698 40.669,68.725 L 57.099,90.833 38.806,108.12 17.453,90.293 c -4.721,3.095 -9.742,5.788 -15.026,8.015 l 3.173,27.34 -24.486,5.825 -9.518,-25.948 c -6.21,0.393 -12.327,0.178 -18.288,-0.604 l -11.332,24.941 -23.981,-7.64 5.132,-26.627 c -5.392,-2.726 -10.499,-5.957 -15.254,-9.638 l -22.06,15.772 -16.947,-18.607 17.621,-20.336 c -3.353,-5.141 -6.224,-10.64 -8.544,-16.442 l -27.421,2.672 -5.373,-24.588 26.131,-9.044 c -0.243,-5.415 -0.016,-10.752 0.637,-15.974 l -24.456,-10.573 7.198,-24.118 26.332,4.575 c 2.512,-5.064 5.466,-9.883 8.82,-14.4 l -16.074,-21.627 18.293,-17.287 20.485,17.101 c 5.111,-3.486 10.592,-6.489 16.388,-8.936 l -3.236,-27.883 24.485,-5.825 9.708,26.464 c 6.685,-0.417 13.261,-0.124 19.652,0.815 l 10.942,-24.081 23.981,7.641 -5.04,26.146 c 5.136,2.686 10.008,5.829 14.553,9.389 l 21.65,-15.48 16.948,18.607 -17.404,20.085 c 3.172,4.914 5.902,10.154 8.136,15.668 l 26.484,-2.581 z"
             style="fill:#f57d8f;fill-opacity:1;fill-rule:nonzero;stroke:none"
             id="path4160"
             inkscape:connector-curvature="0" /></g><g
           id="g4162"
           transform="translate(532.8408,452.3369)"><path
             d="m 0,0 c -6.26,-19.15 -26.695,-29.653 -45.644,-23.459 -18.949,6.194 -29.235,26.739 -22.975,45.89 6.261,19.15 26.696,29.653 45.644,23.459 C -4.026,39.696 6.26,19.15 0,0 m 83.426,-14.509 2.47,25.047 -25.913,5.695 c -0.349,5.375 -1.146,10.623 -2.353,15.71 l 23.632,13.685 -9.96,23.114 -26.023,-7.733 c -3.44,5.36 -7.408,10.345 -11.825,14.887 L 47.194,99.769 27.012,114.806 7.882,94.611 c -5.049,2.524 -10.351,4.613 -15.858,6.209 l -0.036,27.524 -24.997,2.93 -6.429,-26.879 c -6.213,-0.334 -12.263,-1.261 -18.093,-2.733 l -14.162,23.45 -22.927,-10.383 8.201,-25.847 c -5.037,-3.337 -9.732,-7.141 -14.027,-11.351 l -23.747,13.094 -14.663,-20.457 19.872,-18.143 c -2.732,-5.497 -4.943,-11.293 -6.57,-17.325 l -27.545,-0.543 -2.47,-25.047 27.007,-5.936 c 0.389,-5.406 1.237,-10.681 2.494,-15.791 l -23.056,-13.352 9.96,-23.114 25.619,7.613 c 3.085,-4.736 6.58,-9.178 10.439,-13.273 l -13.443,-23.354 20.183,-15.037 18.351,19.372 c 5.483,-2.865 11.277,-5.21 17.319,-6.964 l 0.036,-28.07 24.997,-2.932 6.557,27.415 c 6.689,0.366 13.185,1.423 19.423,3.101 l 13.674,-22.642 22.927,10.384 -8.054,25.382 c 4.788,3.266 9.262,6.956 13.36,11.021 l 23.307,-12.851 14.663,20.456 -19.627,17.919 c 2.579,5.25 4.679,10.773 6.255,16.509 l 26.604,0.525 z"
             style="fill:#94dcf4;fill-opacity:1;fill-rule:nonzero;stroke:none"
             id="path4164"
             inkscape:connector-curvature="0" /></g></g></g><text
       transform="scale(1,-1)"
       style="font-variant:normal;font-weight:bold;font-stretch:normal;font-size:160px;font-family:Tahoma;-inkscape-font-specification:Tahoma-Bold;writing-mode:lr-tb;fill:#312b39;fill-opacity:1;fill-rule:nonzero;stroke:none"
       id="text4166"
       x="134.8018"
       y="-371.2554"><tspan
         x="134.8018 253.04179 350.96179 449.36179"
         y="-371.2554"
         sodipodi:role="line"
         id="tspan4168">UTEK</tspan></text>
</g></svg>